HIERARCHY
ROOT Hips
{
	OFFSET 0.00000 0.00000 0.00000
	CHANNELS 6 Xposition Yposition Zposition Zrotation Yrotation Xrotation 
	JOINT LHipJoint
	{
		OFFSET 0 0 0
		CHANNELS 3 Zrotation Yrotation Xrotation
		JOINT LeftHip
		{
			OFFSET 1.37590 -1.78394 0.89329
			CHANNELS 3 Zrotation Yrotation Xrotation
			JOINT LeftKnee
			{
				OFFSET 2.47928 -6.81178 0.00000
				CHANNELS 3 Zrotation Yrotation Xrotation
				JOINT LeftAnkle
				{
					OFFSET 2.63345 -7.23535 0.00000
					CHANNELS 3 Zrotation Yrotation Xrotation
					JOINT LeftToe
					{
						OFFSET 0.23938 -0.65768 2.27012
						CHANNELS 3 Zrotation Yrotation Xrotation
						End Site
						{
							OFFSET 0.00000 -0.00000 1.18363
						}
					}
				}
			}
		}
	}
	JOINT RHipJoint
	{
		OFFSET 0 0 0
		CHANNELS 3 Zrotation Yrotation Xrotation
		JOINT RightHip
		{
			OFFSET -1.33617 -1.78394 0.89329
			CHANNELS 3 Zrotation Yrotation Xrotation
			JOINT RightKnee
			{
				OFFSET -2.56922 -7.05888 0.00000
				CHANNELS 3 Zrotation Yrotation Xrotation
				JOINT RightAnkle
				{
					OFFSET -2.56568 -7.04915 0.00000
					CHANNELS 3 Zrotation Yrotation Xrotation
					JOINT RightToe
					{
						OFFSET -0.27533 -0.75646 2.18105
						CHANNELS 3 Zrotation Yrotation Xrotation
						End Site
						{
							OFFSET -0.00000 -0.00000 1.15233
						}
					}
				}
			}
		}
	}
	JOINT lowerback
	{
		OFFSET 0 0 0
		CHANNELS 3 Zrotation Yrotation Xrotation
		JOINT Chest
		{
			OFFSET 0.06190 2.15152 -0.00935
			CHANNELS 3 Zrotation Yrotation Xrotation
			JOINT Chest2
			{
				OFFSET 0.06334 2.15332 0.00872
				CHANNELS 3 Zrotation Yrotation Xrotation
				JOINT lowerneck
				{
					OFFSET 0 0 0
					CHANNELS 3 Zrotation Yrotation Xrotation
					JOINT Neck
					{
						OFFSET -0.04202 1.66908 0.23524
						CHANNELS 3 Zrotation Yrotation Xrotation
						JOINT Head
						{
							OFFSET 0.07510 1.69357 -0.24440
							CHANNELS 3 Zrotation Yrotation Xrotation
							End Site
							{
								OFFSET 0.02556 1.71719 -0.11000
							}
						}
					}
				}
				JOINT LeftCollar
				{
					OFFSET 0 0 0
					CHANNELS 3 Zrotation Yrotation Xrotation
					JOINT LeftShoulder
					{
						OFFSET 3.67168 1.26306 -0.41342
CHANNELS 3 Zrotation Xrotation Yrotation
						JOINT LeftElbow
						{
OFFSET 0 -4.685100 -0.000000
CHANNELS 3 Zrotation Xrotation Yrotation
							JOINT LeftWrist
							{
OFFSET 0 -3.396260 -0.000000
CHANNELS 3 Zrotation Xrotation Yrotation
								JOINT lhand
								{
									OFFSET 0 0 0
CHANNELS 3 Zrotation Xrotation Yrotation
									JOINT LFingers
									{
OFFSET 0 -0.486080 -0.000000
CHANNELS 3 Zrotation Xrotation Yrotation
										End Site
										{
OFFSET 0 -0.391890 -0.000000
										}
									}
								}
								JOINT LThumb
								{
OFFSET 0 0.000000 0.000000
CHANNELS 3 Zrotation Xrotation Yrotation
									End Site
									{
OFFSET 0 -0.397870 0.397870
									}
								}
							}
						}
					}
				}
				JOINT RightCollar
				{
					OFFSET 0 0 0
					CHANNELS 3 Zrotation Yrotation Xrotation
					JOINT RightShoulder
					{
						OFFSET -3.04136 1.42992 -0.76390
CHANNELS 3 Zrotation Xrotation Yrotation
						JOINT RightElbow
						{
OFFSET 0 -5.555760 -0.000000
CHANNELS 3 Zrotation Xrotation Yrotation
							JOINT RightWrist
							{
OFFSET 0 -3.327740 -0.000000
CHANNELS 3 Zrotation Xrotation Yrotation
								JOINT rhand
								{
									OFFSET 0 0 0
CHANNELS 3 Zrotation Xrotation Yrotation
									JOINT RFingers
									{
OFFSET 0 -0.507630 -0.000000
CHANNELS 3 Zrotation Xrotation Yrotation
										End Site
										{
OFFSET 0 -0.409260 -0.000000
										}
									}
								}
								JOINT RThumb
								{
OFFSET 0 0.000000 0.000000
CHANNELS 3 Zrotation Xrotation Yrotation
									End Site
									{
OFFSET 0 -0.415510 0.415510
									}
								}
							}
						}
					}
				}
			}
		}
	}
}
MOTION
Frames: 12
Frame Time: 0.008333333333333333
42.921500 17.885100 5.706100 -118.931000 -83.677300 129.612000 0.000000 0.000000 0.000000 -11.507200 -9.144200 -11.636100 0.568600 4.829200 13.422100 0.163900 3.472900 -9.738600 0.015800 0.812000 2.231700 0.000000 0.000000 0.000000 27.387900 5.290600 -13.189700 -0.556700 -4.779200 13.279900 -0.044000 -5.926700 -9.586000 -1.032100 -6.461800 18.130400 5.062100 -0.748400 -1.528100 4.335000 -1.147800 -1.471600 1.610700 -0.647100 -0.663400 -11.581400 -7.942500 -9.637800 7.466900 -10.034600 10.783500 3.358800 -4.903400 5.801300 -0.000000 0.000000 0.000000 2.610000 10.697700 -27.059600 20.847300 -31.649700 5.969600 -6.377900 -1.989300 -26.551800 0.000000 0.000000 0.000000 -7.125000 0.000000 0.000000 -36.846800 52.554000 7.698200 -0.000000 0.000000 0.000000 -12.449100 -1.426700 22.792100 -17.822200 -27.928900 -4.465700 -14.610000 6.932200 21.995500 0.000000 0.000000 0.000000 7.125000 0.000000 -0.000000 14.513300 52.057600 -2.566300
42.904673 17.885384 5.707283 -119.441030 -83.681193 130.155885 0.000000 0.000000 0.000000 -11.562047 -9.055481 -11.497373 0.552010 4.759419 13.223605 0.164949 3.439475 -9.732902 0.016502 0.828911 2.278202 0.000000 0.000000 0.000000 27.352106 5.341931 -13.187141 -0.562283 -4.802999 13.347413 -0.047584 -5.917592 -9.660305 -1.024365 -6.438495 18.062120 5.183377 -0.725989 -1.674407 4.203472 -1.131164 -1.412350 1.404213 -0.635828 -0.525269 -11.420244 -7.895121 -9.970180 7.707291 -9.970651 10.542079 3.407695 -4.840216 5.779534 0.000000 0.000000 0.000000 2.695856 11.201712 -29.533002 19.863409 -30.477432 5.461937 6.276009 11.213349 -23.460593 0.000000 0.000000 0.000000 -7.125000 0.000000 0.000000 -23.231298 52.040474 4.214175 0.000000 0.000000 0.000000 -12.169234 -1.265723 22.983594 -17.745766 -27.830476 -4.429971 -14.555789 7.022468 21.738789 0.000000 0.000000 0.000000 7.125000 0.000000 0.000000 14.455196 51.796156 -2.461800
42.888243 17.885800 5.707402 -120.140356 -83.725166 130.868740 0.000000 0.000000 0.000000 -11.663143 -8.988615 -11.364887 0.538760 4.702796 13.062748 0.164666 3.408853 -9.701004 0.017770 0.861204 2.367028 0.000000 0.000000 0.000000 27.266536 5.341233 -13.162254 -0.563987 -4.809986 13.367347 -0.048371 -5.919273 -9.679478 -1.020834 -6.427698 18.030569 5.050391 -0.733120 -1.772128 4.225152 -1.143130 -1.491345 1.499703 -0.642315 -0.548656 -11.463296 -7.768978 -9.814571 7.836321 -9.808423 10.235400 3.480691 -4.757304 5.650326 0.000000 0.000000 0.000000 2.517169 11.374108 -29.668644 19.799847 -30.400455 5.429739 7.952234 12.012075 -22.254629 0.000000 0.000000 0.000000 -7.125000 0.000000 0.000000 -21.073649 51.178093 3.420586 0.000000 0.000000 0.000000 -12.156145 -0.841508 23.200520 -17.647966 -27.704028 -4.384416 -14.411986 6.959951 21.366276 0.000000 0.000000 0.000000 7.125000 0.000000 0.000000 14.438580 51.405886 -2.319333
42.871418 17.885749 5.708002 -120.112008 -83.747852 130.845973 0.000000 0.000000 0.000000 -11.692141 -8.937422 -11.265715 0.530280 4.666416 12.959462 0.165055 3.343889 -9.656389 0.018148 0.869153 2.388870 0.000000 0.000000 0.000000 27.251868 5.318308 -13.136862 -0.567298 -4.823789 13.406670 -0.049707 -5.934603 -9.730796 -1.017072 -6.416167 17.996794 4.935787 -0.762862 -1.927595 4.292565 -1.196942 -1.475472 1.629456 -0.667130 -0.441808 -11.467408 -7.651986 -9.859151 7.908753 -9.632690 9.937671 3.524079 -4.664488 5.551382 0.000000 0.000000 0.000000 2.247985 11.415469 -29.486720 19.829427 -30.436248 5.444692 9.373477 12.199103 -20.423387 0.000000 0.000000 0.000000 -7.125000 0.000000 0.000000 -18.822976 49.694995 2.262021 0.000000 0.000000 0.000000 -12.169462 -0.611133 23.435342 -17.520850 -27.539235 -4.325445 -14.285781 6.917834 20.745283 0.000000 0.000000 0.000000 7.125000 0.000000 0.000000 14.302351 50.774202 -2.071338
42.855125 17.885835 5.708672 -119.863721 -83.766682 130.598093 0.000000 0.000000 0.000000 -11.699387 -8.889233 -11.188772 0.524688 4.641966 12.890199 0.165972 3.266995 -9.615078 0.018135 0.869719 2.390445 0.000000 0.000000 0.000000 27.251955 5.236163 -13.115285 -0.568112 -4.827351 13.416780 -0.051312 -5.921611 -9.752438 -1.017146 -6.416404 17.997418 4.989691 -0.760324 -1.964439 4.240586 -1.195943 -1.473525 1.545092 -0.666191 -0.421448 -11.355577 -7.601142 -10.096768 7.996150 -9.553526 9.787320 3.536175 -4.609456 5.535370 0.000000 0.000000 0.000000 2.230563 11.441938 -29.610699 19.846905 -30.457463 5.453550 9.563200 12.344528 -20.739094 0.000000 0.000000 0.000000 -7.125000 0.000000 0.000000 -18.779751 50.026449 2.403760 0.000000 0.000000 0.000000 -11.979978 -0.374367 23.589622 -17.401189 -27.383567 -4.270245 -14.295262 6.915981 20.530297 0.000000 0.000000 0.000000 7.125000 0.000000 0.000000 14.207031 50.564037 -1.982719
42.839050 17.885984 5.709406 -119.781693 -83.801329 130.520222 0.000000 0.000000 0.000000 -11.739896 -8.843938 -11.116570 0.519512 4.619352 12.825948 0.167043 3.198790 -9.584049 0.018369 0.874682 2.404003 0.000000 0.000000 0.000000 27.222445 5.167165 -13.097938 -0.569612 -4.833631 13.434703 -0.053149 -5.910532 -9.781065 -1.014530 -6.408404 17.974035 4.935607 -0.768517 -2.079237 4.247133 -1.216991 -1.445343 1.579151 -0.674586 -0.326856 -11.306522 -7.527182 -10.270423 8.079566 -9.436673 9.573696 3.563448 -4.540096 5.488079 0.000000 0.000000 0.000000 2.099270 11.428294 -29.702213 19.833149 -30.440886 5.446574 10.366971 12.736309 -20.378764 0.000000 0.000000 0.000000 -7.125000 0.000000 0.000000 -17.866859 49.805880 2.179033 0.000000 0.000000 0.000000 -11.891327 -0.182863 23.744886 -17.265406 -27.206334 -4.207968 -14.181562 6.878322 20.190687 0.000000 0.000000 0.000000 7.125000 0.000000 0.000000 14.181315 50.211518 -1.854291
42.823345 17.886101 5.710311 -119.565728 -83.836048 130.305716 0.000000 0.000000 0.000000 -11.774106 -8.805398 -11.063228 0.517001 4.608502 12.795109 0.168621 3.130022 -9.562126 0.018400 0.875987 2.407565 0.000000 0.000000 0.000000 27.199413 5.087807 -13.078373 -0.570808 -4.838633 13.448793 -0.055223 -5.896931 -9.811638 -1.012077 -6.401025 17.952381 4.890588 -0.774716 -2.193476 4.251607 -1.236013 -1.404710 1.605798 -0.681736 -0.220050 -11.250550 -7.462055 -10.480308 8.158002 -9.329694 9.380471 3.585688 -4.474922 5.453598 0.000000 0.000000 0.000000 1.982733 11.363733 -29.769307 19.835304 -30.443405 5.447701 10.771088 12.833083 -20.188617 0.000000 0.000000 0.000000 -7.125000 0.000000 0.000000 -17.406240 49.684967 2.066351 0.000000 0.000000 0.000000 -11.787647 -0.023071 23.873742 -17.118042 -27.013149 -4.140794 -14.023841 6.828412 19.889617 0.000000 0.000000 0.000000 7.125000 0.000000 0.000000 14.214142 49.890352 -1.744874
42.807838 17.886200 5.711398 -119.226977 -83.871342 129.965796 0.000000 0.000000 0.000000 -11.805211 -8.777141 -11.027851 0.517425 4.610142 12.799957 0.170797 3.063342 -9.557036 0.018400 0.875116 2.405195 0.000000 0.000000 0.000000 27.180625 4.998759 -13.055197 -0.571608 -4.841869 13.458034 -0.057615 -5.880328 -9.846583 -1.009559 -6.393077 17.929176 4.868265 -0.776334 -2.292227 4.243249 -1.247475 -1.364488 1.607151 -0.685359 -0.123094 -11.186333 -7.408193 -10.712714 8.237267 -9.239686 9.219099 3.604232 -4.417418 5.434156 0.000000 0.000000 0.000000 1.906217 11.272298 -29.883725 19.835167 -30.443259 5.447584 10.947290 12.871540 -20.237781 0.000000 0.000000 0.000000 -7.125000 0.000000 0.000000 -17.261669 49.758869 2.080326 0.000000 0.000000 0.000000 -11.653024 0.126249 23.964903 -16.960481 -26.805587 -4.069489 -13.826936 6.769000 19.652509 0.000000 0.000000 0.000000 7.125000 0.000000 0.000000 14.309793 49.626644 -1.662649
42.792599 17.886200 5.712754 -118.790780 -83.907181 129.527733 0.000000 0.000000 0.000000 -11.835599 -8.761460 -11.005259 0.520051 4.621689 12.832601 0.173437 3.004715 -9.567643 0.018400 0.876309 2.408493 0.000000 0.000000 0.000000 27.165041 4.911136 -13.026707 -0.572135 -4.844105 13.464449 -0.060303 -5.866127 -9.889731 -1.006542 -6.383955 17.902641 4.852043 -0.776283 -2.390633 4.234396 -1.256872 -1.321651 1.604395 -0.687830 -0.023664 -11.123823 -7.359860 -10.952137 8.313964 -9.157381 9.074466 3.621189 -4.363920 5.421755 0.000000 0.000000 0.000000 1.846331 11.156539 -30.034540 19.833200 -30.440800 5.446600 11.101374 12.909816 -20.277285 0.000000 0.000000 0.000000 -7.125000 0.000000 0.000000 -17.133709 49.820337 2.090506 0.000000 0.000000 0.000000 -11.509591 0.260456 24.027947 -16.791042 -26.581415 -3.993427 -13.628555 6.713142 19.425697 0.000000 0.000000 0.000000 7.125000 0.000000 0.000000 14.410971 49.373535 -1.583611
42.777524 17.886096 5.714376 -118.238025 -83.937645 128.971990 0.000000 0.000000 0.000000 -11.856743 -8.755496 -10.994944 0.524581 4.641558 12.889065 0.176449 2.953119 -9.591566 0.018348 0.874682 2.404011 0.000000 0.000000 0.000000 27.160010 4.825134 -12.990991 -0.572096 -4.843782 13.463547 -0.063042 -5.854708 -9.938406 -1.004361 -6.377233 17.883005 4.868509 -0.772233 -2.472879 4.211556 -1.259483 -1.288150 1.569746 -0.687441 0.056088 -11.054541 -7.319391 -11.188155 8.391939 -9.089446 8.954444 3.635986 -4.317441 5.417620 0.000000 0.000000 0.000000 1.830440 11.039294 -30.236337 19.835322 -30.443388 5.447687 11.231499 12.951426 -20.327271 0.000000 0.000000 0.000000 -7.125000 0.000000 0.000000 -17.032487 49.888324 2.106604 0.000000 0.000000 0.000000 -11.334280 0.401610 24.060369 -16.615494 -26.348011 -3.915222 -13.447678 6.676140 19.210986 0.000000 0.000000 0.000000 7.125000 0.000000 0.000000 14.500379 49.135356 -1.507416
42.762449 17.885794 5.716335 -117.596467 -83.967397 128.328781 0.000000 0.000000 0.000000 -11.876190 -8.763153 -10.996350 0.530985 4.669308 12.967843 0.179653 2.911867 -9.627660 0.018163 0.870124 2.391527 0.000000 0.000000 0.000000 27.158694 4.739594 -12.950419 -0.571245 -4.840281 13.453592 -0.065641 -5.847918 -9.989184 -1.001653 -6.368717 17.858130 4.891683 -0.769371 -2.556857 4.189544 -1.263968 -1.256766 1.532132 -0.688092 0.134429 -10.985123 -7.282181 -11.414240 8.456756 -9.026766 8.847119 3.646383 -4.274667 5.415565 0.000000 0.000000 0.000000 1.828018 10.919174 -30.466293 19.847524 -30.458219 5.453846 11.347446 13.011334 -20.400235 0.000000 0.000000 0.000000 -7.125000 0.000000 0.000000 -16.954284 49.976332 2.133978 0.000000 0.000000 0.000000 -11.154928 0.536520 24.080545 -16.435567 -26.107608 -3.835731 -13.305061 6.660385 19.018165 0.000000 0.000000 0.000000 7.125000 0.000000 0.000000 14.562263 48.924820 -1.437364
42.747459 17.885444 5.718610 -116.834765 -83.996598 127.568474 0.000000 0.000000 0.000000 -11.891144 -8.788154 -11.008299 0.538969 4.703741 13.065378 0.183150 2.876557 -9.674542 0.017929 0.864028 2.374695 0.000000 0.000000 0.000000 27.162446 4.652977 -12.906248 -0.569447 -4.833002 13.432861 -0.067924 -5.850190 -10.043074 -0.998507 -6.358949 17.829646 4.929770 -0.769669 -2.646728 4.164141 -1.273293 -1.228357 1.482581 -0.691150 0.212483 -10.909346 -7.245104 -11.621799 8.505779 -8.966507 8.751119 3.651108 -4.234424 5.413120 0.000000 0.000000 0.000000 1.845566 10.807851 -30.721395 19.878783 -30.495953 5.469705 11.450282 13.083621 -20.504076 0.000000 0.000000 0.000000 -7.125000 0.000000 0.000000 -16.901511 50.092253 2.176208 0.000000 0.000000 0.000000 -10.964610 0.666238 24.084927 -16.251050 -25.859795 -3.754794 -13.232796 6.692508 18.837654 0.000000 0.000000 0.000000 7.125000 0.000000 0.000000 14.563048 48.736935 -1.368913
